<svg width="400" height="600" viewBox="0 0 400 600" fill="none" xmlns="http://www.w3.org/2000/svg">
  <path
    d="M160,80 Q200,70 240,80 L240,110 Q280,110 320,105 Q330,125 320,140 Q280,145 235,140
       L240,180 Q290,185 330,175 Q340,200 330,225 Q290,230 245,220
       L250,280 Q310,290 355,275 Q365,310 355,340 Q310,350 250,340
       L255,420 Q330,440 370,420 Q380,460 370,490 Q320,510 255,495
       L260,560 Q200,570 140,560
       L145,495 Q80,510 30,490 Q20,460 30,420 Q70,440 145,420
       L150,340 Q90,350 45,340 Q35,310 45,275 Q90,290 150,280
       L155,220 Q110,230 70,225 Q60,200 70,175 Q110,185 160,180
       L165,140 Q120,145 80,140 Q70,125 80,105 Q120,110 160,110 Z"
    fill="currentColor"
  />
</svg>
